<?xml version="1.0" encoding="utf-8"?>
<svg id="Outline" viewBox="0 0 512 512" width="512" height="512" xmlns="http://www.w3.org/2000/svg">
  <g transform="matrix(0.87569, 0, 0, 0.85567, 4.112161, 25.515064)">
    <path d="M 450.216 33.173 L 399.218 33.173 C 395.697 33.173 392.843 36.229 392.843 39.998 L 392.843 46.822 L 259.754 46.822 C 253.991 46.826 248.32 48.374 243.259 51.325 L 180.847 87.769 L 105.975 87.769 C 95.251 87.769 86.851 99.76 86.851 115.067 C 86.851 129.354 94.17 140.745 103.864 142.204 L 75.123 246.363 C 75.098 246.456 75.074 246.55 75.052 246.643 C 74.421 249.349 74.101 252.128 74.101 254.918 L 74.101 449.469 C 74.101 453.238 76.955 456.293 80.476 456.293 L 367.344 456.293 C 370.864 456.293 373.718 453.238 373.718 449.469 L 373.718 255.489 C 373.719 252.229 373.283 248.987 372.423 245.86 L 345.862 149.184 C 363.796 149.043 378.636 134.211 379.998 115.067 L 392.843 115.067 L 392.843 128.716 C 392.843 132.485 395.697 135.541 399.218 135.541 L 450.216 135.541 C 453.737 135.541 456.591 132.485 456.591 128.716 L 456.591 39.998 C 456.591 36.229 453.737 33.173 450.216 33.173 Z M 99.6 115.067 C 99.6 106.735 103.376 101.418 105.975 101.418 L 288.206 101.418 L 262.706 128.716 L 105.975 128.716 C 103.376 128.716 99.6 123.399 99.6 115.067 Z M 298.171 246.644 C 297.54 249.35 297.221 252.129 297.22 254.919 L 297.22 442.644 L 86.851 442.644 L 86.851 254.918 C 86.851 253.289 87.033 251.666 87.392 250.083 L 117.114 142.365 L 251.172 142.365 C 240.16 162.283 253.419 187.493 275.038 187.744 C 281.363 187.817 287.526 185.602 292.529 181.458 L 323.198 155.92 L 298.243 246.364 C 298.217 246.457 298.193 246.551 298.171 246.644 Z M 335.469 424.998 L 351.953 442.644 L 318.986 442.644 Z M 360.192 249.714 C 360.707 251.589 360.969 253.534 360.969 255.489 L 360.969 432.992 L 341.844 412.519 L 341.844 265.207 C 341.844 259.953 336.532 256.67 332.282 259.296 C 330.31 260.516 329.095 262.768 329.095 265.207 L 329.095 412.52 L 309.97 432.993 L 309.97 254.918 C 309.971 253.289 310.152 251.666 310.511 250.083 L 335.453 159.678 Z M 392.843 101.418 L 377.522 101.418 C 371.903 101.425 367.35 106.3 367.344 112.314 C 367.33 125.136 357.624 135.526 345.648 135.541 L 329.977 135.541 C 327.988 135.545 326.057 136.254 324.485 137.558 L 284.7 170.687 C 275.394 178.443 261.735 172.506 260.114 160.001 C 259.453 154.908 261.062 149.778 264.46 146.144 L 308.102 99.422 C 311.574 95.709 309.99 89.365 305.25 88.003 C 304.711 87.848 304.154 87.769 303.595 87.769 L 207.474 87.769 L 249.365 63.307 C 252.553 61.449 256.124 60.474 259.754 60.471 L 392.843 60.471 Z M 443.842 121.892 L 405.593 121.892 L 405.593 46.822 L 443.842 46.822 Z" style="stroke-width: 0.825; fill: rgb(252, 253, 253);"/>
    <g>
      <path d="M 188.848 251.558 C 188.848 246.304 183.535 243.021 179.286 245.648 C 177.314 246.867 176.098 249.12 176.098 251.558 L 176.098 272.031 L 163.349 272.031 L 163.349 251.558 C 163.349 246.304 158.036 243.021 153.786 245.648 C 151.814 246.867 150.599 249.12 150.599 251.558 L 150.599 272.031 L 137.849 272.031 L 137.849 251.558 C 137.849 246.304 132.537 243.021 128.287 245.648 C 126.315 246.867 125.1 249.12 125.1 251.558 L 125.1 278.856 L 125.112 278.856 C 125.107 279.914 125.334 280.959 125.773 281.908 L 137.741 307.533 L 132.467 386.589 C 131.676 398.441 140.444 408.521 151.543 408.521 L 162.405 408.521 C 173.504 408.521 182.272 398.441 181.481 386.589 L 176.207 307.533 L 188.175 281.908 C 188.614 280.959 188.841 279.914 188.836 278.856 L 188.848 278.856 Z M 172.159 285.68 L 165.784 299.329 L 148.164 299.329 L 141.789 285.68 Z M 167.072 392.698 C 165.87 394.092 164.177 394.881 162.405 394.872 L 151.543 394.872 C 147.844 394.872 144.921 391.513 145.184 387.563 L 150.16 312.978 L 163.786 312.978 L 168.763 387.563 C 168.897 389.453 168.284 391.316 167.072 392.698 Z" style="stroke-width: 0.825; fill: rgb(252, 253, 253);"/>
      <path d="M 246.222 333.111 L 246.222 251.558 C 246.222 247.789 243.367 244.733 239.847 244.733 C 200.912 244.733 195.454 316.248 195.24 319.291 C 195.047 322.053 196.433 324.667 198.747 325.906 L 207.973 330.845 L 207.973 333.114 L 203.032 386.011 C 201.906 398.063 210.747 408.521 222.061 408.521 L 232.133 408.521 C 243.447 408.521 252.288 398.063 251.162 386.011 Z M 208.41 315.819 C 209.515 306.249 211.48 296.817 214.279 287.652 C 219.178 272.219 225.615 262.827 233.472 259.626 L 233.472 326.627 L 220.722 326.627 C 220.722 324.042 219.358 321.679 217.199 320.524 Z M 236.858 392.627 C 235.655 394.065 233.936 394.882 232.133 394.872 L 222.061 394.872 C 218.288 394.873 215.34 391.384 215.717 387.365 L 220.117 340.276 L 234.078 340.276 L 238.477 387.365 C 238.667 389.287 238.078 391.202 236.86 392.627 Z" style="stroke-width: 0.825; fill: rgb(252, 253, 253);"/>
    </g>
  </g>
</svg>