<?xml version="1.0" encoding="utf-8"?>
<svg version="1.1" id="Capa_1" x="0px" y="0px" width="30px" height="30px" viewBox="0 0 30 30" style="enable-background:new 0 0 30 30;" xmlns="http://www.w3.org/2000/svg">
  <g>
    <path d="M 21.806 19.626 L 20.631 18.385 C 24.465 14.34 24.465 7.756 20.631 3.711 L 21.805 2.472 C 26.285 7.202 26.285 14.895 21.806 19.626 Z M 19.777 4.612 L 18.603 5.849 C 21.317 8.716 21.317 13.379 18.603 16.246 L 19.778 17.484 C 23.138 13.936 23.138 8.16 19.777 4.612 Z M 17.682 6.823 L 16.508 8.063 C 18.069 9.709 18.069 12.391 16.508 14.036 L 17.682 15.275 C 19.889 12.945 19.889 9.151 17.682 6.823 Z M 6.147 6.072 C 6.024 7.685 5.952 9.301 5.925 10.917 L 5.918 10.917 C 5.919 10.961 5.922 11.003 5.922 11.047 C 5.922 11.092 5.919 11.135 5.918 11.178 L 5.926 11.178 C 5.953 12.794 6.025 14.411 6.148 16.023 C 6.468 20.243 9.611 23.045 12.692 22.319 C 12.826 22.29 12.968 22.288 13.095 22.233 C 13.845 21.904 14.466 21.291 15.159 20.839 C 16.042 20.254 14.139 15.298 12.959 15.939 C 12.524 16.178 11.319 17.117 10.835 17.187 C 10.403 17.251 10.065 16.647 10.022 16.09 C 9.909 14.619 10.011 12.741 10.019 11.179 L 10.022 11.179 C 10.022 11.137 10.021 11.092 10.021 11.048 C 10.021 11.005 10.022 10.959 10.022 10.918 L 10.019 10.918 C 10.01 9.357 9.908 7.477 10.021 6.007 C 10.064 5.449 10.402 4.844 10.834 4.91 C 11.319 4.98 12.523 5.919 12.958 6.159 C 14.138 6.798 16.04 1.841 15.158 1.258 C 14.466 0.804 13.844 0.192 13.095 -0.136 C 12.967 -0.193 12.825 -0.194 12.691 -0.222 C 9.61 -0.95 6.468 1.854 6.147 6.072 Z" style="stroke-width: 0.741; fill: rgb(249, 249, 249);" transform="matrix(0.812196, -0.583384, 0.583384, 0.812196, -3.526608, 11.141602)"/>
  </g>
</svg>