<?xml version="1.0" standalone="no"?>
<!DOCTYPE svg PUBLIC "-//W3C//DTD SVG 20010904//EN"
 "http://www.w3.org/TR/2001/REC-SVG-20010904/DTD/svg10.dtd">
<svg version="1.0" xmlns="http://www.w3.org/2000/svg"
 width="2008.000000pt" height="1349.000000pt" viewBox="0 0 2008.000000 1349.000000"
 preserveAspectRatio="xMidYMid meet">
<metadata>
Created by potrace 1.16, written by Peter Selinger 2001-2019
</metadata>
<g transform="translate(0.000000,1349.000000) scale(0.100000,-0.100000)"
fill="#000000" stroke="none">
<path d="M10480 13484 c-732 -40 -1406 -309 -2034 -812 -152 -122 -324 -280
-402 -368 -295 -334 -520 -832 -610 -1349 -32 -185 -43 -492 -25 -655 41 -355
153 -638 345 -866 28 -34 80 -98 115 -143 185 -237 479 -401 821 -457 137 -23
374 -21 520 5 489 85 864 372 971 743 29 104 36 268 15 381 -18 96 -64 234
-103 311 -102 201 -429 331 -710 282 -185 -32 -293 -87 -424 -216 -125 -123
-205 -270 -255 -468 -21 -83 -19 -87 52 -98 92 -14 181 38 237 138 45 81 122
154 171 164 47 8 116 -17 166 -62 44 -40 88 -133 97 -202 12 -101 -41 -241
-134 -356 -169 -210 -452 -247 -760 -101 -260 123 -488 330 -590 537 -90 182
-119 335 -110 573 10 252 73 482 203 745 220 443 523 746 959 960 769 378
1748 350 2480 -71 344 -198 618 -486 793 -836 288 -572 375 -1276 251 -2043
-115 -718 -436 -1527 -871 -2196 -44 -69 -82 -123 -84 -121 -3 2 3 21 12 43
62 146 154 470 193 674 47 251 70 561 63 863 l-3 137 -3104 0 -3103 0 -8 -97
c-4 -54 -4 -188 -1 -298 10 -298 40 -525 107 -802 126 -520 355 -994 680
-1405 34 -43 59 -78 56 -78 -2 0 -80 32 -173 71 -436 183 -932 371 -1195 453
l-118 37 0 1597 c0 1576 1 1598 20 1641 27 58 82 138 185 268 95 120 141 202
178 318 50 158 67 280 67 483 0 146 -161 2089 -175 2112 -9 14 -45 12 -50 -2
-3 -11 -46 -1831 -45 -1935 0 -61 -67 -95 -105 -53 -16 18 -21 106 -55 1007
-21 543 -38 989 -39 991 0 1 -7 2 -15 2 -10 0 -17 -15 -20 -42 -3 -24 -12
-466 -21 -983 -19 -1064 -11 -987 -97 -993 -35 -2 -48 2 -64 19 -18 20 -20 55
-36 838 -9 449 -17 892 -17 984 -1 141 -3 169 -16 174 -9 3 -19 3 -22 -1 -3
-3 -22 -448 -42 -990 -34 -921 -38 -986 -55 -1005 -25 -27 -49 -27 -79 2 l-25
22 -16 775 c-24 1161 -26 1200 -45 1200 -9 0 -21 -4 -28 -8 -16 -10 -183
-1940 -183 -2117 1 -262 50 -489 144 -655 14 -25 76 -109 138 -187 62 -77 129
-167 148 -199 l35 -58 3 -1553 c1 -854 -1 -1553 -5 -1553 -3 0 -76 16 -162 35
-178 39 -398 78 -551 97 -140 17 -610 17 -710 0 -424 -73 -803 -219 -1137
-441 -160 -105 -257 -184 -392 -315 -295 -289 -503 -611 -656 -1020 -35 -95
-36 -101 -19 -113 56 -41 159 -40 230 2 54 32 87 78 219 305 172 297 244 398
395 554 297 308 665 484 1185 566 345 55 697 30 1134 -80 163 -40 407 -113
418 -124 14 -13 -51 -463 -99 -681 -16 -77 -67 -270 -113 -430 -128 -445 -162
-642 -152 -864 3 -69 13 -155 22 -191 50 -202 190 -359 394 -437 53 -21 83
-26 156 -26 78 0 101 4 172 32 146 57 264 163 328 295 61 124 70 177 70 391
-1 253 -27 393 -155 825 -63 212 -103 378 -134 560 -28 169 -51 358 -44 365 9
10 501 -188 938 -377 234 -101 733 -301 955 -383 735 -270 1269 -377 1900
-378 916 -3 1846 204 2631 582 949 459 1652 1139 2084 2016 255 518 405 1078
472 1760 20 208 17 851 -5 1055 -62 558 -187 1019 -387 1420 -104 209 -218
386 -376 585 -109 136 -406 434 -537 539 -534 425 -1128 677 -1762 746 -104
11 -370 19 -465 14z"/>
<path d="M15159 12908 c-95 -49 -105 -62 -218 -280 -252 -482 -401 -1027 -475
-1743 -48 -454 -72 -1185 -61 -1804 l7 -396 52 -51 c54 -53 70 -60 251 -113
125 -36 188 -114 221 -274 14 -70 15 -160 5 -920 -9 -699 -15 -880 -32 -1067
-54 -609 -95 -845 -224 -1294 -46 -160 -95 -343 -109 -406 -81 -365 -71 -636
31 -833 71 -137 220 -257 377 -302 88 -26 221 -17 305 19 193 83 307 209 371
411 32 98 39 343 16 505 -21 146 -78 378 -155 639 -119 400 -174 734 -231
1396 -20 232 4 2051 55 4130 54 2227 55 2274 36 2338 -29 99 -92 111 -222 45z"/>
<path d="M2905 2309 c-329 -23 -620 -176 -805 -420 -295 -392 -295 -999 0
-1390 210 -279 532 -429 921 -429 206 0 370 36 537 117 376 183 602 558 602
1000 0 545 -310 956 -819 1089 -52 13 -136 27 -186 30 -49 3 -101 6 -115 8
-14 1 -74 -1 -135 -5z m219 -419 c222 -32 396 -159 487 -355 56 -121 72 -199
71 -345 -1 -225 -60 -380 -196 -515 -132 -131 -270 -187 -461 -188 -123 0
-198 15 -294 59 -97 45 -170 102 -228 178 -262 347 -171 897 181 1090 133 73
281 99 440 76z"/>
<path d="M9223 2218 c-17 -35 -247 -520 -512 -1079 -264 -559 -481 -1019 -481
-1023 0 -3 109 -6 243 -6 l244 0 72 170 73 170 460 -2 459 -3 70 -160 c38 -88
73 -163 78 -168 4 -4 116 -6 248 -5 l240 3 -511 1080 -511 1080 -72 3 -71 3
-29 -63z m123 -720 c35 -107 123 -327 194 -483 40 -88 79 -175 87 -192 l13
-33 -315 0 c-221 0 -315 3 -315 11 0 6 45 111 99 234 91 203 201 481 201 505
0 28 20 4 36 -42z"/>
<path d="M0 1190 l0 -1081 548 3 c526 4 550 5 625 26 223 62 374 201 433 397
13 43 18 92 18 170 -1 93 -5 122 -28 189 -46 135 -131 239 -251 307 l-58 33
24 15 c46 30 119 104 152 155 54 81 78 159 84 266 13 236 -96 423 -302 521
-155 74 -140 73 -722 77 l-523 3 0 -1081z m875 708 c128 -25 205 -119 205
-247 0 -48 -7 -79 -24 -116 -28 -61 -56 -87 -121 -117 -46 -21 -66 -23 -262
-26 l-213 -4 0 261 0 261 178 0 c98 0 205 -5 237 -12z m119 -888 c110 -42 172
-145 164 -272 -5 -80 -24 -125 -72 -176 -71 -77 -154 -94 -431 -90 l-190 3 -3
278 -2 277 239 0 c217 0 245 -2 295 -20z"/>
<path d="M4836 1843 c-98 -878 -116 -985 -191 -1150 -58 -127 -157 -201 -291
-220 -24 -3 -44 -8 -44 -12 1 -32 58 -372 63 -377 8 -9 153 11 233 31 32 8 97
34 144 57 68 32 101 57 165 122 67 68 89 98 133 186 96 196 124 332 190 930
l48 425 287 3 287 2 0 -865 0 -865 230 0 230 0 0 1080 0 1080 -718 0 -718 0
-48 -427z"/>
<path d="M6780 1190 l0 -1080 235 0 235 0 0 865 0 865 460 0 460 0 0 215 0
215 -695 0 -695 0 0 -1080z"/>
<path d="M13920 2243 c-301 -47 -561 -193 -723 -405 -109 -143 -192 -341 -218
-516 -17 -121 -6 -385 20 -483 77 -293 234 -511 479 -668 83 -53 227 -111 347
-139 97 -23 131 -26 285 -26 153 0 189 4 285 26 449 106 762 432 841 878 19
112 19 330 -1 444 -82 465 -427 805 -896 881 -86 14 -351 19 -419 8z m420
-450 c47 -16 112 -46 143 -67 122 -81 222 -224 264 -376 14 -50 18 -102 18
-220 0 -176 -12 -236 -72 -360 -54 -110 -169 -223 -283 -278 -103 -49 -175
-65 -300 -65 -123 0 -196 15 -300 65 -157 75 -286 233 -336 413 -26 93 -30
305 -9 402 34 151 96 264 195 356 132 123 265 168 475 163 102 -3 133 -7 205
-33z"/>
<path d="M16416 2234 c-372 -67 -671 -301 -812 -634 -123 -294 -122 -649 3
-946 40 -95 126 -225 203 -307 355 -380 1000 -458 1474 -179 90 54 227 177
297 270 250 330 290 839 97 1227 -152 305 -434 507 -795 570 -108 19 -360 18
-467 -1z m399 -419 c86 -18 194 -69 263 -124 217 -172 302 -533 197 -834 -66
-191 -227 -350 -405 -401 -331 -95 -653 32 -795 315 -60 119 -79 205 -79 359
1 161 21 248 86 372 80 155 239 277 408 313 86 18 238 18 325 0z"/>
<path d="M11360 1125 l0 -1085 233 2 232 3 3 398 2 397 405 0 405 0 0 210 0
210 -405 0 -405 0 0 260 0 260 455 0 455 0 0 215 0 215 -690 0 -690 0 0 -1085z"/>
<path d="M18160 1126 l0 -1086 383 0 c571 0 720 16 921 100 280 117 499 374
577 677 62 244 45 528 -44 748 -129 316 -388 530 -747 618 -79 19 -121 21
-587 24 l-503 4 0 -1085z m955 669 c177 -37 328 -152 405 -308 63 -129 75
-188 75 -367 0 -134 -3 -165 -23 -230 -65 -208 -188 -342 -370 -406 -97 -33
-186 -43 -394 -44 l-178 0 0 685 0 685 208 0 c143 0 229 -5 277 -15z"/>
</g>
</svg>
