<?xml version="1.0" encoding="utf-8"?>
<svg version="1.0" width="1216.000000pt" height="834.000000pt" viewBox="0 0 1216.000000 834.000000" preserveAspectRatio="xMidYMid meet" xmlns="http://www.w3.org/2000/svg">
  <g transform="translate(0.000000,834.000000) scale(0.100000,-0.100000)" fill="#000000" stroke="none">
    <path d="M7790 8334 c-19 -2 -78 -9 -130 -15 -494 -55 -1001 -273 -1447 -621 -146 -114 -312 -266 -389 -356 -348 -406 -561 -1066 -515 -1595 31 -359 116 -560 364 -862 169 -205 353 -321 610 -386 117 -30 377 -37 507 -15 238 41 447 137 602 275 99 88 189 236 223 366 18 70 21 239 5 311 -48 221 -127 342 -270 414 -287 145 -643 61 -825 -195 -80 -112 -173 -351 -147 -377 16 -16 96 -21 134 -9 42 14 75 48 131 132 74 112 141 135 229 80 28 -18 57 -48 75 -78 25 -43 28 -57 28 -138 0 -79 -4 -97 -29 -146 -91 -182 -224 -270 -406 -272 -279 -2 -643 239 -783 518 -70 140 -92 243 -91 425 1 222 52 426 165 657 200 410 524 702 967 873 405 157 904 187 1339 80 492 -120 891 -395 1121 -772 279 -456 386 -1081 296 -1733 -103 -742 -454 -1560 -952 -2220 -50 -66 -109 -140 -132 -165 l-41 -45 26 53 c246 506 338 1008 288 1580 l-6 72 -2337 0 -2338 0 -7 -107 c-12 -172 -8 -447 9 -591 60 -509 254 -995 548 -1370 27 -35 48 -65 46 -66 -2 -2 -75 28 -163 66 -371 160 -923 371 -1133 433 l-62 18 2 1337 3 1336 35 57 c19 31 69 101 113 154 155 194 217 387 217 679 0 63 -32 479 -70 924 -39 445 -70 814 -70 820 0 5 -11 10 -25 10 -24 0 -25 -2 -26 -67 0 -38 -8 -404 -18 -814 -13 -587 -20 -750 -30 -763 -21 -25 -70 -21 -80 7 -5 12 -21 371 -36 797 -14 426 -28 790 -31 808 -3 19 -11 32 -19 32 -12 0 -15 -16 -15 -72 0 -40 -7 -379 -15 -753 -8 -374 -15 -708 -15 -742 0 -49 -4 -67 -20 -83 -26 -26 -72 -26 -96 1 -18 20 -20 63 -35 832 -9 447 -17 813 -18 815 -1 1 -8 2 -16 2 -9 0 -15 -9 -15 -22 0 -13 -13 -380 -30 -817 -20 -542 -33 -798 -41 -807 -14 -18 -63 -18 -77 -1 -7 8 -16 282 -27 797 -9 432 -18 800 -21 818 -6 39 -41 46 -48 10 -3 -13 -37 -399 -76 -858 -59 -686 -71 -854 -65 -940 17 -275 76 -443 212 -605 83 -100 116 -144 146 -196 l27 -46 0 -1285 0 -1285 -52 14 c-81 21 -330 70 -458 90 -88 14 -176 18 -380 18 -239 0 -276 -2 -375 -23 -389 -82 -734 -241 -1025 -472 -105 -84 -295 -279 -374 -383 -129 -173 -236 -369 -316 -579 -39 -102 -39 -103 -20 -120 50 -41 154 -30 216 24 19 17 74 97 121 177 190 323 255 413 404 556 294 283 739 445 1229 446 268 1 519 -44 912 -162 92 -27 87 -7 58 -230 -30 -224 -73 -427 -140 -659 -117 -408 -141 -534 -141 -730 0 -206 43 -331 152 -441 64 -64 169 -121 256 -139 124 -26 271 28 384 140 104 103 145 207 156 390 10 179 -21 358 -124 713 -71 247 -107 407 -133 587 -30 211 -30 210 -19 210 15 0 431 -169 734 -298 975 -414 1450 -564 1985 -626 485 -57 1107 -7 1675 134 1066 264 1907 827 2433 1628 269 410 455 895 547 1422 179 1036 16 2073 -428 2730 -198 294 -466 570 -747 770 -369 263 -773 427 -1220 495 -100 15 -464 28 -540 19z m627 -4632 c-49 -1069 -721 -1943 -1646 -2139 -405 -85 -858 -20 -1230 178 -589 314 -1007 928 -1126 1656 -19 113 -41 404 -32 426 6 16 144 17 2023 17 l2017 0 -6 -138z" style="fill: rgb(10, 119, 121);"/>
    <path d="M11788 7875 c-116 -42 -141 -72 -257 -300 -253 -498 -375 -1099 -411 -2025 -11 -298 -13 -944 -3 -1094 6 -94 8 -100 39 -131 33 -34 65 -48 194 -86 93 -28 146 -76 181 -164 l24 -60 -3 -710 c-2 -617 -5 -741 -23 -945 -40 -465 -84 -728 -174 -1040 -115 -401 -134 -495 -142 -685 -12 -305 74 -478 291 -586 86 -42 93 -44 181 -44 87 0 95 2 177 42 143 71 232 179 274 333 14 49 18 101 18 215 0 203 -21 308 -148 746 -87 303 -133 582 -177 1079 -20 220 -3 1598 41 3445 47 1927 46 1897 31 1951 -17 64 -51 81 -113 59z" style="fill: rgb(10, 119, 121);"/>
  </g>
</svg>