<?xml version="1.0" encoding="utf-8"?>
<svg viewBox="0 0 316 316" xmlns="http://www.w3.org/2000/svg">
  <g transform="matrix(1, 0, 0, 1, -0.626777, 30.550482)">
    <g id="SvgjsG2133" featurekey="1p4tPl-0" transform="matrix(1.198054, 0, 0, 1.311141, 95.633423, 21.561295)" fill="url(#SvgjsLinearGradient2137)">
      <title xmlns="http://www.w3.org/2000/svg">The Noun Project</title>
      <g xmlns="http://www.w3.org/2000/svg" data-name="Shape 118">
        <path class="cls-1" d="M96.15,60.89a40.18,40.18,0,0,1-3,8.36C89.52,76.49,83.2,82,76.67,86.79a49,49,0,0,1-7.2,4.57C64.05,94,57.93,95,51.89,95.19c-12.82.48-26.34-2.34-36-10.84a39.5,39.5,0,0,1-7.35-8.78A44.13,44.13,0,0,1,9,29.35C17,17.14,30.71,9.64,44.88,6.32A54.67,54.67,0,0,1,55.52,4.78,41.1,41.1,0,0,1,89.61,21.51c8,11.14,9.87,26.05,6.55,39.38M75,12.89c-4.78-2.74-10.35-3.82-15.85-4.13-11.83-.66-24,2.22-33.79,8.87S8.21,34.79,6.23,46.48,7.9,70.85,16.37,79.14A34.45,34.45,0,0,0,37.5,88.76c2.45,0.2,5.19.24,6.93,2a5.45,5.45,0,0,0,3.62,1.18c17.25,1,34.64-9.34,41.94-25s4.06-35.64-7.82-48.2A31.78,31.78,0,0,0,75,12.89Z" style="fill: rgb(10, 119, 121);"/>
        <path class="cls-1" d="M28,68.87A5.08,5.08,0,0,1,26.89,72a8.38,8.38,0,0,1-2.41,2.62,3.66,3.66,0,0,1-3.42.38,3.41,3.41,0,0,1-1.82-2.77,5.53,5.53,0,0,1,.86-3.3A5.58,5.58,0,0,1,24.21,66,3.47,3.47,0,0,1,28,68.87M22.42,70c-0.44.77-.58,2,0.26,2.33a1.46,1.46,0,0,0,1.18-.21,2.55,2.55,0,0,0,1.35-1.67,1.41,1.41,0,0,0-1.09-1.66A2,2,0,0,0,22.42,70Z" style="fill: rgb(10, 119, 121);"/>
        <path class="cls-1" d="M58,78.25a5,5,0,0,1,3.45.21,3.29,3.29,0,0,1,2,1.2A2.58,2.58,0,0,1,63,82.41a25.64,25.64,0,0,0-1.86,2.28,1.84,1.84,0,0,1-2.13.69,3.6,3.6,0,0,1-1.81-1.54,4.91,4.91,0,0,1-.89-3A3,3,0,0,1,58,78.25m2.74,3.24a0.76,0.76,0,0,0-1.38-.3,1.51,1.51,0,0,0,.67.69,0.52,0.52,0,0,0,.72-0.41v0Z" style="fill: rgb(10, 119, 121);"/>
        <path class="cls-1" d="M82.31,51.85A3.21,3.21,0,0,1,81,49.06a4,4,0,0,1,4.15-3.19,3.79,3.79,0,0,1,3.28,4,3.62,3.62,0,0,1-4.13,3,4.49,4.49,0,0,1-2-1.08m3.48-2.17a1.16,1.16,0,1,0-1.83.83A1.22,1.22,0,0,0,85.78,49.68Z" style="fill: rgb(10, 119, 121);"/>
        <path class="cls-1" d="M79.28,68.41c-1.21,2.39-2.72,5-5.27,5.8-4,1.32-7.78-2.15-10.73-5.12a96.61,96.61,0,0,0-11.44-9.85c1.69,5.65,3.38,11.64,2,17.37a7.56,7.56,0,0,1-3.24,5,9.65,9.65,0,0,1-3.48.91,24.15,24.15,0,0,1-8.36.12C36,82,33.34,80.23,32.5,77.55c-1.06-3.38,1-6.88,2.9-9.84l9-13.85L30.62,59a31.53,31.53,0,0,1-8,2.18,10.62,10.62,0,0,1-7.81-2.09c-2.53-2.14-3.46-5.65-3.53-9-0.1-5.18,2.08-10.88,6.82-13s10.07-.05,14.78,2l7.71,3.29a77.55,77.55,0,0,1-6.46-10.28c-1.81-3.46-3.33-7.81-1.23-11.11a17.75,17.75,0,0,1,17.66-7.73,9.32,9.32,0,0,1,4.87,2.21c3,2.89,2.47,7.75,1.71,11.85L55,38.82,65.46,23.62c1.58-2.3,3.57-4.84,6.37-4.93,2.55-.08,4.64,2,6.06,4.08a25.18,25.18,0,0,1,4,17.72c-0.41,2.63-1.37,5.38-3.55,6.9-1.72,1.2-3.92,1.44-6,1.64l-7.1.69c4.69,2.16,11,.47,14.67,4.14a8.73,8.73,0,0,1,2.07,7.25,23,23,0,0,1-2.63,7.31m-29-21.58,4.68-23a6.88,6.88,0,0,0-3.87-7.19,10.19,10.19,0,0,0-8.5.15,20.24,20.24,0,0,0-6.81,5.43c-1.42,1.63-.7,4.15.21,6.11a52.82,52.82,0,0,0,14.3,18.47M73.81,23a2.5,2.5,0,0,0-2.27-1.11,2.56,2.56,0,0,0-1.17.87C63.67,30.24,58.87,39.17,54.13,48a0.89,0.89,0,0,0-.12.88,0.9,0.9,0,0,0,1,.16A111.47,111.47,0,0,1,74.7,46c1.73-.11,2.79-1.93,3.31-3.59A20.38,20.38,0,0,0,73.81,23M14.58,52.21a7.65,7.65,0,0,0,1.52,3.55c2.24,2.61,6.36,2.14,9.7,1.29a111.27,111.27,0,0,0,20.4-7.39c-2.11-2-4.85-3.24-7.53-4.41L27.38,40.33a13.71,13.71,0,0,0-3.85-1.24,8.27,8.27,0,0,0-7.71,4.15,12.76,12.76,0,0,0-1.23,9m57.95,2.07c-6.81-1.54-14-2.78-20.7-.92A245.24,245.24,0,0,0,70.29,70.69a3.43,3.43,0,0,0,4.14-.17,8.45,8.45,0,0,0,2.46-3.68,35.53,35.53,0,0,0,1.62-4.9,6.83,6.83,0,0,0,.16-3.72c-0.78-2.43-3.65-3.37-6.14-3.94M50.62,75.47c1.52-6.59-2-13.25-2.35-20A0.6,0.6,0,0,0,47.46,55a1.74,1.74,0,0,0-.77.72q-4.77,6.78-9.18,13.8a13.39,13.39,0,0,0-2,4.2,4.67,4.67,0,0,0,1.07,4.34c1.75,1.67,4.54,1.09,6.95,1.24,1.58,0.1,3.27.53,4.69-.17A5.22,5.22,0,0,0,50.62,75.47Z" style="fill: rgb(10, 119, 121);"/>
        <path class="cls-1" d="M23.66,32.06a3.49,3.49,0,0,1-1.62.21,2.61,2.61,0,0,1-2-2.8,3.75,3.75,0,0,1,2.19-2.89c1.57-.75,3.86-0.31,4.42,1.35s-1.18,3.55-3,4.14m0.54-2.38A1.11,1.11,0,0,0,24.63,29a1.1,1.1,0,0,0-.71-0.42,1.1,1.1,0,0,0-.42.71,1.08,1.08,0,0,0,.71.42h0Z" style="fill: rgb(10, 119, 121);"/>
        <path class="cls-1" d="M61.44,18.42a3,3,0,0,1-.22-3.13,3.2,3.2,0,0,1,1.25-1.46,2.76,2.76,0,0,1,3.8,1.51,3.12,3.12,0,0,1-1.91,3.76A2.7,2.7,0,0,1,61.44,18.42Z" style="fill: rgb(10, 119, 121);"/>
      </g>
    </g>
    <g id="SvgjsG2134" featurekey="dYASrj-0" transform="matrix(2.739107, 0, 0, 2.997654, 5.086028, 146.88501)" fill="url(#SvgjsLinearGradient2141)">
      <path d="M9 9.08 l-4.6 0 l0 2.9 l4.5 0 c0.32 0 0.5 0.18 0.5 0.5 l0 2.08 c0 0.32 -0.18 0.5 -0.5 0.5 l-4.5 0 l0 4.44 c0 0.32 -0.18 0.5 -0.5 0.5 l-2.2 0 c-0.32 0 -0.5 -0.18 -0.5 -0.5 l0 -13 c0 -0.32 0.18 -0.5 0.5 -0.5 l2.7 0 l4.6 0 c0.32 0 0.5 0.18 0.5 0.5 l0 2.08 c0 0.32 -0.18 0.5 -0.5 0.5 z M16 20.28 c-2.94 0 -5.3 -2.3 -5.3 -5.28 s2.36 -5.28 5.3 -5.28 s5.3 2.3 5.3 5.28 s-2.36 5.28 -5.3 5.28 z M16 17.36 c1.3 0 2.3 -0.94 2.3 -2.36 s-1 -2.36 -2.3 -2.36 s-2.3 0.94 -2.3 2.36 s1 2.36 2.3 2.36 z M27.799999999999997 20.28 c-2.94 0 -5.3 -2.3 -5.3 -5.28 s2.36 -5.28 5.3 -5.28 s5.3 2.3 5.3 5.28 s-2.36 5.28 -5.3 5.28 z M27.799999999999997 17.36 c1.3 0 2.3 -0.94 2.3 -2.36 s-1 -2.36 -2.3 -2.36 s-2.3 0.94 -2.3 2.36 s1 2.36 2.3 2.36 z M44.56 6 c0.32 0 0.5 0.18 0.5 0.5 l0 13 c0 0.32 -0.18 0.5 -0.5 0.5 l-2 0 c-0.32 0 -0.5 -0.18 -0.5 -0.5 l0 -0.434 c-0.6686 0.7624 -1.6416 1.214 -2.9798 1.214 c-2.62 0 -4.78 -2.3 -4.78 -5.28 s2.16 -5.28 4.78 -5.28 c1.3382 0 2.3112 0.4516 2.9798 1.214 l0 -4.434 c0 -0.32 0.18 -0.5 0.5 -0.5 l2 0 z M39.68000000000001 17.44 c1.38 0 2.38 -0.94 2.38 -2.44 s-1 -2.44 -2.38 -2.44 s-2.38 0.94 -2.38 2.44 s1 2.44 2.38 2.44 z M55.160000000000004 9.08 l-4.6 0 l0 2.9 l4.5 0 c0.32 0 0.5 0.18 0.5 0.5 l0 2.08 c0 0.32 -0.18 0.5 -0.5 0.5 l-4.5 0 l0 4.44 c0 0.32 -0.18 0.5 -0.5 0.5 l-2.2 0 c-0.32 0 -0.5 -0.18 -0.5 -0.5 l0 -13 c0 -0.32 0.18 -0.5 0.5 -0.5 l2.7 0 l4.6 0 c0.32 0 0.5 0.18 0.5 0.5 l0 2.08 c0 0.32 -0.18 0.5 -0.5 0.5 z M62.160000000000004 20.28 c-2.94 0 -5.3 -2.3 -5.3 -5.28 s2.36 -5.28 5.3 -5.28 s5.3 2.3 5.3 5.28 s-2.36 5.28 -5.3 5.28 z M62.160000000000004 17.36 c1.3 0 2.3 -0.94 2.3 -2.36 s-1 -2.36 -2.3 -2.36 s-2.3 0.94 -2.3 2.36 s1 2.36 2.3 2.36 z M74.24000000000001 9.84 c0.34 -0.06 0.52 0.1598 0.52 0.4798 l0 2.36 c0 0.32 -0.14 0.48 -0.4 0.48 c-1.12 -0.04 -2.2 0.52 -2.2 2.12 l0 4.22 c0 0.32 -0.18 0.5 -0.5 0.5 l-2 0 c-0.32 0 -0.5 -0.18 -0.5 -0.5 l0 -9 c0 -0.32 0.18 -0.5 0.5 -0.5 l2 0 c0.32 0 0.5 0.18 0.5 0.5 l0 1.081 c0.2984 -1.004 1.0864 -1.5918 2.08 -1.7408 z M86.48 6 c0.38 0 0.54 0.24 0.34 0.6 l-4.16 7.2714 l0 5.6286 c0 0.32 -0.18 0.5 -0.5 0.5 l-2.2 0 c-0.32 0 -0.5 -0.18 -0.5 -0.5 l0 -5.6286 l-4.16 -7.2714 c-0.2 -0.36 -0.04 -0.6 0.34 -0.6 l2.56 0 c0.28 0 0.46 0.12 0.58 0.36 l2.28 4.3666 l2.28 -4.3666 c0.12 -0.24 0.3 -0.36 0.58 -0.36 l2.56 0 z M93.06000000000002 20.28 c-2.94 0 -5.3 -2.3 -5.3 -5.28 s2.36 -5.28 5.3 -5.28 s5.3 2.3 5.3 5.28 s-2.36 5.28 -5.3 5.28 z M93.06000000000002 17.36 c1.3 0 2.3 -0.94 2.3 -2.36 s-1 -2.36 -2.3 -2.36 s-2.3 0.94 -2.3 2.36 s1 2.36 2.3 2.36 z M108.10000000000001 10 c0.32 0 0.5 0.18 0.5 0.5 l0 9 c0 0.32 -0.18 0.5 -0.5 0.5 l-2 0 c-0.32 0 -0.5 -0.18 -0.5 -0.5 l0 -0.4134 c-0.47 0.695 -1.3214 1.1934 -2.6 1.1934 c-1.86 0 -3.2 -1.44 -3.2 -3.94 l0 -5.84 c0 -0.32 0.18 -0.5 0.5 -0.5 l2 0 c0.32 0 0.5 0.18 0.5 0.5 l0 5.58 c0 1 0.58 1.44 1.34 1.44 c0.9 0 1.46 -0.5 1.46 -1.68 l0 -5.34 c0 -0.32 0.18 -0.5 0.5 -0.5 l2 0 z" style="fill: rgb(10, 119, 121);"/>
    </g>
  </g>
</svg>